# xmcd
#
# Track frame offsets: 
#        150
#        21530
#        43355
#        62645
#        91405
#        108040
#        122457
#        148877
#        166682
#        186510
#        214797
#
# Disc length: 3150 seconds
#
# Revision: 0
# Processed by: cddbd v1.5PL3 Copyright (c) Steve Scherf et al.
# Submitted via: ExactAudioCopy v0.95a3
#
DISCID=9e0c4c0b
DTITLE=BLUESPOWER. - A Band like Dynamite
DYEAR=1994
DGENRE=Blues
TTITLE0=Never make a move too soon
TTITLE1=I'm ready
TTITLE2=Let the good times roll
TTITLE3=Sweet home Chicago
TTITLE4=Cleanhead Blues
TTITLE5=Whole lotta lovin'
TTITLE6=Sweet little angel
TTITLE7=Got my mojo working
TTITLE8=Can't be satisfied
TTITLE9=Redhouse Blues
TTITLE10=Ain't nobody's business
EXTD=
EXTT0=
EXTT1=
EXTT2=
EXTT3=
EXTT4=
EXTT5=
EXTT6=
EXTT7=
EXTT8=
EXTT9=
EXTT10=
PLAYORDER=
